<mxfile host="Electron" modified="2023-11-08T07:12:46.050Z" agent="Mozilla/5.0 (Windows NT 10.0; Win64; x64) AppleWebKit/537.36 (KHTML, like Gecko) draw.io/21.2.8 Chrome/112.0.5615.165 Electron/24.2.0 Safari/537.36" etag="9ZF6HJr2q-n3LlDyO514" version="21.2.8" type="device">
  <diagram name="第 1 页" id="z1EwqgkSUiRJyfCn-h1Z">
    <mxGraphModel dx="1050" dy="671" grid="1" gridSize="10" guides="1" tooltips="1" connect="1" arrows="1" fold="1" page="1" pageScale="1" pageWidth="3300" pageHeight="4681" math="0" shadow="0">
      <root>
        <mxCell id="0" />
        <mxCell id="1" parent="0" />
        <mxCell id="cwzj1Dwt6X_oeceQB2pK-1" value="" style="strokeWidth=2;shadow=0;dashed=0;align=center;html=1;shape=mxgraph.mockup.containers.browserWindow;rSize=0;strokeColor=#666666;strokeColor2=#008cff;strokeColor3=#c4c4c4;mainText=,;recursiveResize=0;" parent="1" vertex="1">
          <mxGeometry x="460" y="470" width="480" height="320" as="geometry" />
        </mxCell>
        <mxCell id="cwzj1Dwt6X_oeceQB2pK-2" value="Page 1" style="strokeWidth=1;shadow=0;dashed=0;align=center;html=1;shape=mxgraph.mockup.containers.anchor;fontSize=17;fontColor=#666666;align=left;whiteSpace=wrap;" parent="cwzj1Dwt6X_oeceQB2pK-1" vertex="1">
          <mxGeometry x="60" y="12" width="110" height="26" as="geometry" />
        </mxCell>
        <mxCell id="cwzj1Dwt6X_oeceQB2pK-3" value="https://www.atguigu.com" style="strokeWidth=1;shadow=0;dashed=0;align=center;html=1;shape=mxgraph.mockup.containers.anchor;rSize=0;fontSize=17;fontColor=#666666;align=left;" parent="cwzj1Dwt6X_oeceQB2pK-1" vertex="1">
          <mxGeometry x="130" y="60" width="250" height="26" as="geometry" />
        </mxCell>
        <mxCell id="cwzj1Dwt6X_oeceQB2pK-7" value="Spring Boot" style="rounded=1;whiteSpace=wrap;html=1;fontSize=20;fontStyle=1;fillColor=#60a917;fontColor=#ffffff;strokeColor=#2D7600;strokeWidth=2;" parent="1" vertex="1">
          <mxGeometry x="460" y="200" width="200" height="60" as="geometry" />
        </mxCell>
        <mxCell id="cwzj1Dwt6X_oeceQB2pK-8" value="Minio" style="rounded=1;whiteSpace=wrap;html=1;fontSize=20;fontStyle=1;fillColor=#e51400;fontColor=#ffffff;strokeColor=#B20000;strokeWidth=2;" parent="1" vertex="1">
          <mxGeometry x="820" y="200" width="160" height="60" as="geometry" />
        </mxCell>
        <mxCell id="cwzj1Dwt6X_oeceQB2pK-10" value="" style="endArrow=classic;html=1;rounded=0;entryX=0.2;entryY=1;entryDx=0;entryDy=0;strokeWidth=2;strokeColor=#60a918;entryPerimeter=0;" parent="1" edge="1">
          <mxGeometry relative="1" as="geometry">
            <mxPoint x="500" y="470" as="sourcePoint" />
            <mxPoint x="500" y="260" as="targetPoint" />
          </mxGeometry>
        </mxCell>
        <mxCell id="cwzj1Dwt6X_oeceQB2pK-11" value="1.上传图片" style="edgeLabel;resizable=0;html=1;align=center;verticalAlign=middle;fontSize=15;fontStyle=1;fontColor=#60a918;" parent="cwzj1Dwt6X_oeceQB2pK-10" connectable="0" vertex="1">
          <mxGeometry relative="1" as="geometry">
            <mxPoint x="-10" y="-25" as="offset" />
          </mxGeometry>
        </mxCell>
        <mxCell id="cwzj1Dwt6X_oeceQB2pK-15" value="" style="endArrow=classic;html=1;rounded=0;exitX=1;exitY=0.5;exitDx=0;exitDy=0;strokeWidth=2;entryX=0;entryY=0.5;entryDx=0;entryDy=0;" parent="1" source="cwzj1Dwt6X_oeceQB2pK-7" target="cwzj1Dwt6X_oeceQB2pK-8" edge="1">
          <mxGeometry relative="1" as="geometry">
            <mxPoint x="1015" y="270" as="sourcePoint" />
            <mxPoint x="797" y="471" as="targetPoint" />
          </mxGeometry>
        </mxCell>
        <mxCell id="cwzj1Dwt6X_oeceQB2pK-16" value="2.存储图片&lt;br&gt;到Minio" style="edgeLabel;resizable=0;html=1;align=center;verticalAlign=middle;fontSize=15;fontStyle=1" parent="cwzj1Dwt6X_oeceQB2pK-15" connectable="0" vertex="1">
          <mxGeometry relative="1" as="geometry" />
        </mxCell>
        <mxCell id="cwzj1Dwt6X_oeceQB2pK-17" value="" style="endArrow=classic;html=1;rounded=0;strokeWidth=2;strokeColor=#FF0000;exitX=0.5;exitY=1;exitDx=0;exitDy=0;entryX=0.21;entryY=-0.003;entryDx=0;entryDy=0;entryPerimeter=0;" parent="1" source="cwzj1Dwt6X_oeceQB2pK-7" target="cwzj1Dwt6X_oeceQB2pK-1" edge="1">
          <mxGeometry relative="1" as="geometry">
            <mxPoint x="600" y="260" as="sourcePoint" />
            <mxPoint x="720" y="460" as="targetPoint" />
          </mxGeometry>
        </mxCell>
        <mxCell id="cwzj1Dwt6X_oeceQB2pK-18" value="3.返回Minio&lt;br&gt;对象URL" style="edgeLabel;resizable=0;html=1;align=center;verticalAlign=middle;fontSize=15;fontStyle=1;fontColor=#FF0000;" parent="cwzj1Dwt6X_oeceQB2pK-17" connectable="0" vertex="1">
          <mxGeometry relative="1" as="geometry">
            <mxPoint y="25" as="offset" />
          </mxGeometry>
        </mxCell>
        <mxCell id="cwzj1Dwt6X_oeceQB2pK-19" value="MySQL" style="shape=cylinder3;whiteSpace=wrap;html=1;boundedLbl=1;backgroundOutline=1;size=15;fontStyle=1;strokeWidth=2;fillColor=#cce5ff;strokeColor=#36393d;fontSize=20;" parent="1" vertex="1">
          <mxGeometry x="140" y="160" width="105" height="140" as="geometry" />
        </mxCell>
        <mxCell id="cwzj1Dwt6X_oeceQB2pK-22" value="" style="endArrow=classic;html=1;rounded=0;entryX=0.2;entryY=1;entryDx=0;entryDy=0;strokeWidth=2;strokeColor=#60a918;entryPerimeter=0;" parent="1" edge="1">
          <mxGeometry relative="1" as="geometry">
            <mxPoint x="620" y="470" as="sourcePoint" />
            <mxPoint x="620" y="260" as="targetPoint" />
          </mxGeometry>
        </mxCell>
        <mxCell id="cwzj1Dwt6X_oeceQB2pK-23" value="4.保存公寓、&lt;br&gt;房间等实体信息" style="edgeLabel;resizable=0;html=1;align=center;verticalAlign=middle;fontSize=15;fontStyle=1;fontColor=#60a918;" parent="cwzj1Dwt6X_oeceQB2pK-22" connectable="0" vertex="1">
          <mxGeometry relative="1" as="geometry">
            <mxPoint y="-25" as="offset" />
          </mxGeometry>
        </mxCell>
        <mxCell id="cwzj1Dwt6X_oeceQB2pK-24" value="" style="endArrow=classic;html=1;rounded=0;exitX=0;exitY=0.5;exitDx=0;exitDy=0;strokeWidth=2;entryX=1;entryY=0.5;entryDx=0;entryDy=0;entryPerimeter=0;" parent="1" source="cwzj1Dwt6X_oeceQB2pK-7" target="cwzj1Dwt6X_oeceQB2pK-19" edge="1">
          <mxGeometry relative="1" as="geometry">
            <mxPoint x="670" y="240" as="sourcePoint" />
            <mxPoint x="830" y="240" as="targetPoint" />
          </mxGeometry>
        </mxCell>
        <mxCell id="cwzj1Dwt6X_oeceQB2pK-25" value="5.存储Minio对象&lt;br&gt;URL到MySQL" style="edgeLabel;resizable=0;html=1;align=center;verticalAlign=middle;fontSize=15;fontStyle=1" parent="cwzj1Dwt6X_oeceQB2pK-24" connectable="0" vertex="1">
          <mxGeometry relative="1" as="geometry" />
        </mxCell>
      </root>
    </mxGraphModel>
  </diagram>
</mxfile>
